<svg width="30" height="30" viewBox="0 0 30 30" fill="none" xmlns="http://www.w3.org/2000/svg">
<path d="M19.605 0L10.395 0C1.98999 0 0 1.98999 0 10.395L0 19.605C0 28.01 1.98999 30 10.395 30H19.605C28.01 30 30 28.01 30 19.605V10.395C30 1.98999 27.9887 0 19.605 0ZM24.22 21.4037H22.04C21.215 21.4037 20.96 20.7475 19.4775 19.245C18.1862 17.995 17.615 17.8262 17.2975 17.8262C16.8525 17.8262 16.725 17.9537 16.725 18.5675V20.5362C16.725 21.0662 16.5562 21.3837 15.1587 21.3837C12.8512 21.3837 10.2887 19.9862 8.48997 17.3812C5.77998 13.5712 5.03748 10.7125 5.03748 10.12C5.03748 9.80247 5.16498 9.50622 5.77872 9.50622H7.95873C8.50872 9.50622 8.72124 9.75996 8.93373 10.3525C10.0125 13.465 11.8125 16.1962 12.5537 16.1962C12.8288 16.1962 12.9562 16.0687 12.9562 15.3712L12.9562 12.1512C12.8713 10.6687 12.0875 10.5425 12.0875 10.0137C12.0875 9.75873 12.3 9.50499 12.6375 9.50499L16.0675 9.50499C16.5338 9.50499 16.7025 9.75873 16.7025 10.3088V14.65C16.7025 15.115 16.915 15.285 17.0413 15.285C17.3163 15.285 17.55 15.115 18.0575 14.6075C19.625 12.85 20.7463 10.14 20.7463 10.14C20.895 9.82251 21.1488 9.52626 21.7 9.52626H23.88C24.5363 9.52626 24.685 9.86376 24.5363 10.33C24.2613 11.6013 21.5938 15.3688 21.5938 15.3688C21.3613 15.75 21.2763 15.9188 21.5938 16.3438C21.8263 16.6613 22.5888 17.3175 23.0975 17.91C24.0288 18.9688 24.7475 19.8575 24.9388 20.4725C25.1513 21.085 24.8325 21.4025 24.22 21.4037Z" fill="white"/>
</svg>
