<svg width="20" height="20" viewBox="0 0 20 20" fill="none" xmlns="http://www.w3.org/2000/svg">
<path d="M0 6.93V13.07C0 18.6733 1.32666 20 6.93 20H13.07C18.6733 20 20 18.6733 20 13.07V6.93C20 1.32666 18.6733 4.76837e-07 13.07 4.76837e-07H6.93C1.32666 4.76837e-07 0 1.34084 0 6.93ZM14.2692 3.85334V5.30668C14.2692 5.85668 13.8317 6.02668 12.83 7.01502C11.9967 7.87586 11.8842 8.25668 11.8842 8.46836C11.8842 8.76502 11.9692 8.85002 12.3783 8.85002H13.6908C14.0442 8.85002 14.2558 8.96252 14.2558 9.89418C14.2558 11.4325 13.3242 13.1408 11.5875 14.34C9.04748 16.1467 7.14164 16.6417 6.74664 16.6417C6.53498 16.6417 6.33748 16.5567 6.33748 16.1475V14.6942C6.33748 14.3275 6.50664 14.1858 6.90164 14.0442C8.97664 13.325 10.7975 12.125 10.7975 11.6308C10.7975 11.4475 10.7125 11.3625 10.2475 11.3625H8.10082C7.11248 11.4192 7.02832 11.9417 6.67582 11.9417C6.50582 11.9417 6.33666 11.8 6.33666 11.575V9.28834C6.33666 8.9775 6.50582 8.865 6.8725 8.865H9.76666C10.0767 8.865 10.19 8.72334 10.19 8.63916C10.19 8.45582 10.0767 8.3 9.73834 7.96166C8.56668 6.91666 6.76 6.16916 6.76 6.16916C6.54834 6.07 6.35084 5.90082 6.35084 5.53332V4.07998C6.35084 3.64248 6.57584 3.54332 6.88668 3.64248C7.73418 3.82582 10.2458 5.60414 10.2458 5.60414C10.5 5.75914 10.6125 5.8158 10.8958 5.60414C11.1075 5.44914 11.545 4.9408 11.94 4.60164C12.6458 3.9808 13.2383 3.50164 13.6483 3.37414C14.0567 3.23248 14.2683 3.44502 14.2692 3.85334Z" fill="#FFA501"/>
</svg>
