<svg width="20" height="20" viewBox="0 0 20 20" fill="none" xmlns="http://www.w3.org/2000/svg">
<path d="M13.07 0L6.93 0C1.32666 0 0 1.32666 0 6.93L0 13.07C0 18.6733 1.32666 20 6.93 20H13.07C18.6733 20 20 18.6733 20 13.07V6.93C20 1.32666 18.6592 0 13.07 0ZM16.1467 14.2692H14.6933C14.1433 14.2692 13.9733 13.8317 12.985 12.83C12.1241 11.9967 11.7433 11.8842 11.5316 11.8842C11.235 11.8842 11.15 11.9692 11.15 12.3783V13.6908C11.15 14.0442 11.0375 14.2558 10.1058 14.2558C8.56748 14.2558 6.85916 13.3242 5.65998 11.5875C3.85332 9.04748 3.35832 7.14164 3.35832 6.74664C3.35832 6.53498 3.44332 6.33748 3.85248 6.33748H5.30582C5.67248 6.33748 5.81416 6.50664 5.95582 6.90164C6.67498 8.97664 7.87498 10.7975 8.36916 10.7975C8.5525 10.7975 8.6375 10.7125 8.6375 10.2475V8.10082C8.58084 7.11248 8.05834 7.02832 8.05834 6.67582C8.05834 6.50582 8.2 6.33666 8.425 6.33666H10.7117C11.0225 6.33666 11.135 6.50582 11.135 6.8725V9.76666C11.135 10.0767 11.2767 10.19 11.3608 10.19C11.5442 10.19 11.7 10.0767 12.0383 9.73834C13.0833 8.56668 13.8308 6.76 13.8308 6.76C13.93 6.54834 14.0992 6.35084 14.4667 6.35084H15.92C16.3575 6.35084 16.4567 6.57584 16.3575 6.88668C16.1742 7.73418 14.3959 10.2458 14.3959 10.2458C14.2409 10.5 14.1842 10.6125 14.3959 10.8958C14.5509 11.1075 15.0592 11.545 15.3984 11.94C16.0192 12.6458 16.4984 13.2383 16.6259 13.6483C16.7675 14.0567 16.555 14.2683 16.1467 14.2692Z" fill="white"/>
</svg>
